<?xml version="1.0" encoding="utf-8"?>
<!-- Generator: Adobe Illustrator 21.1.0, SVG Export Plug-In . SVG Version: 6.00 Build 0)  -->
<svg version="1.1" id="Layer_2" xmlns="http://www.w3.org/2000/svg" xmlns:xlink="http://www.w3.org/1999/xlink" x="0px" y="0px"
	 viewBox="0 0 145 39.7" style="enable-background:new 0 0 145 39.7;" xml:space="preserve">
<style type="text/css">
	.st0{fill:#44515B;}
	.st1{clip-path:url(#SVGID_2_);fill:url(#SVGID_3_);}
	.st2{clip-path:url(#SVGID_5_);fill:url(#SVGID_6_);}
	.st3{clip-path:url(#SVGID_8_);fill:url(#SVGID_9_);}
	.st4{clip-path:url(#SVGID_11_);fill:url(#SVGID_12_);}
	.st5{clip-path:url(#SVGID_14_);fill:url(#SVGID_15_);}
	.st6{clip-path:url(#SVGID_17_);fill:url(#SVGID_18_);}
	.st7{clip-path:url(#SVGID_20_);fill:url(#SVGID_21_);}
	.st8{clip-path:url(#SVGID_23_);fill:url(#SVGID_24_);}
	.st9{clip-path:url(#SVGID_26_);fill:url(#SVGID_27_);}
</style>
<path class="st0" d="M21.5,26.7c0,5.9-2.6,9.2-9.5,9.2c-4.1,0-6.3-1.3-7.5-2.7c-1-1.2-0.1-3.1,1.5-3.1H7c0.7,0,1.3,0.3,1.8,0.9
	c0.6,0.7,1.5,1.1,3.4,1.1c3.4,0,4.1-2.2,4.1-5v-0.7c-1,1.3-2.3,2.3-5.5,2.3C6.1,28.7,3,25,3,20.6c0-5.1,3.7-8.9,8.3-8.9
	c3.4,0,4.6,1.4,5,2.3v0c0-1,0.9-1.8,1.9-1.8h1.3c1.1,0,1.9,0.9,1.9,1.9c0,1,0,1.9,0,2.9V26.7z M11.7,24.8c2.6,0,4.8-1.6,4.8-4.6
	c0-2.7-2-4.5-4.6-4.5c-2.7,0-4.2,2-4.2,4.6C7.6,22.7,9,24.8,11.7,24.8"/>
<path class="st0" d="M30.1,21.3c0.1,2,1.6,3.6,4,3.6c1.5,0,2.4-0.4,3-1c0.4-0.4,0.9-0.6,1.4-0.6h0.8c1.7,0,2.6,2.1,1.3,3.3
	c-1.4,1.3-3.5,2.2-6.6,2.2c-6.7,0-9.1-4.4-9.1-8.6c0-4.6,3.1-8.7,9.1-8.7c6.4,0,8.9,4.4,8.9,8.7v0.2c0,0.6-0.5,1-1,1H30.1z
	 M37.7,18.2c-0.1-1.2-0.8-3.1-3.7-3.1c-2.7,0-3.7,1.5-3.8,3.1H37.7z"/>
<path class="st0" d="M79.2,11.5c0.9,0,1.6,0.6,1.9,1.5c1.7,7,2.1,10,2.4,11.7h0c0.4-1.9,1-4.8,2.9-11.7c0.2-0.8,1-1.4,1.8-1.4h2
	c0.9,0,1.6,0.6,1.8,1.4c2,7.4,2.5,10.2,2.8,11.6h0c0.3-1.6,0.8-4.9,2.5-11.6c0.2-0.8,1-1.4,1.8-1.4h1c1.3,0,2.2,1.2,1.8,2.5l-4.1,14
	c-0.1,0.4-0.5,0.7-1,0.7h-4.1c-0.5,0-0.9-0.3-1-0.7c-1.5-5.2-2.3-7.8-2.8-9.9h0c-0.4,1.7-1.4,5.4-2.9,9.9c-0.1,0.4-0.5,0.7-1,0.7H81
	c-0.4,0-0.8-0.3-1-0.7l-3.9-14c-0.4-1.2,0.6-2.4,1.8-2.4H79.2z"/>
<path class="st0" d="M123,20.1c0,5-3.5,8.7-9.6,8.7c-6.1,0-9.2-4.1-9.2-8.7c0-4.5,3.2-8.6,9.4-8.6C120,11.4,123,16,123,20.1
	 M109,20.1c0,2.6,1.9,4.8,4.6,4.8c2.8,0,4.6-2.2,4.6-4.7c0-2.5-1.7-4.8-4.6-4.8C110.7,15.4,109,17.6,109,20.1"/>
<path class="st0" d="M129.2,11.5c0.3,0,0.6,0.1,0.8,0.4c1.9,2.4,3.2,4,3.7,4.7h0.1c0.7-1,1.9-2.5,3.5-4.6c0.2-0.3,0.5-0.4,0.8-0.4
	h2.8c0.9,0,1.3,1,0.8,1.7l-5.2,6.2l5.6,7.7c0.5,0.7,0.1,1.7-0.8,1.7h-3.3c-0.3,0-0.6-0.1-0.8-0.4c-1.9-2.4-3.2-4.1-3.8-4.9h-0.1
	c-0.5,0.7-1.7,2.2-3.8,4.9c-0.2,0.3-0.5,0.4-0.8,0.4H126c-0.9,0-1.3-1-0.8-1.7l5.3-7.4l-5.4-6.4c-0.6-0.7-0.1-1.7,0.8-1.7H129.2z"/>
<g>
	<defs>
		<path id="SVGID_1_" d="M56.6,3.8c-0.7,0.2-1.1,1-0.9,1.7c0.2,0.7,1,1.1,1.7,0.9c0.7-0.2,1.1-1,0.9-1.7c-0.2-0.6-0.7-1-1.3-1
			C56.8,3.7,56.7,3.8,56.6,3.8"/>
	</defs>
	<clipPath id="SVGID_2_">
		<use xlink:href="#SVGID_1_"  style="overflow:visible;"/>
	</clipPath>
	
		<linearGradient id="SVGID_3_" gradientUnits="userSpaceOnUse" x1="-669.2948" y1="2114.7117" x2="-668.2948" y2="2114.7117" gradientTransform="matrix(15.4033 -24.9668 -24.9668 -15.4033 63151.5742 15888.4395)">
		<stop  offset="0" style="stop-color:#00B8D9"/>
		<stop  offset="9.615381e-04" style="stop-color:#00B8D9"/>
		<stop  offset="0.4489" style="stop-color:#5D75B8"/>
		<stop  offset="1" style="stop-color:#5D75B8"/>
	</linearGradient>
	<polygon class="st1" points="54.2,5.8 56.3,2.4 59.7,4.5 57.6,7.9 	"/>
</g>
<g>
	<defs>
		<path id="SVGID_4_" d="M57.7,7.7c-0.7,0.2-1.1,1-0.9,1.7l1.5,5.2c0.2,0.7,1,1.1,1.7,0.9c0.7-0.2,1.1-1,0.9-1.7l-1.5-5.2
			c-0.2-0.6-0.7-1-1.3-1C57.9,7.7,57.8,7.7,57.7,7.7"/>
	</defs>
	<clipPath id="SVGID_5_">
		<use xlink:href="#SVGID_4_"  style="overflow:visible;"/>
	</clipPath>
	
		<linearGradient id="SVGID_6_" gradientUnits="userSpaceOnUse" x1="-669.2948" y1="2114.7117" x2="-668.2948" y2="2114.7117" gradientTransform="matrix(15.4033 -24.9668 -24.9668 -15.4033 63155.8438 15891.0703)">
		<stop  offset="0" style="stop-color:#00B8D9"/>
		<stop  offset="9.615381e-04" style="stop-color:#00B8D9"/>
		<stop  offset="0.4489" style="stop-color:#5D75B8"/>
		<stop  offset="1" style="stop-color:#5D75B8"/>
	</linearGradient>
	<polygon class="st2" points="53,13.5 57.8,5.6 64.7,9.9 59.8,17.7 	"/>
</g>
<g>
	<defs>
		<path id="SVGID_7_" d="M60.3,16.9c-0.7,0.2-1.1,1-0.9,1.7l2.8,9.7c0.2,0.7,1,1.1,1.7,0.9c0.7-0.2,1.1-1,0.9-1.7L62,17.8
			c-0.2-0.6-0.7-1-1.3-1C60.6,16.8,60.5,16.8,60.3,16.9"/>
	</defs>
	<clipPath id="SVGID_8_">
		<use xlink:href="#SVGID_7_"  style="overflow:visible;"/>
	</clipPath>
	
		<linearGradient id="SVGID_9_" gradientUnits="userSpaceOnUse" x1="-669.2948" y1="2114.7117" x2="-668.2948" y2="2114.7117" gradientTransform="matrix(15.4033 -24.9668 -24.9668 -15.4033 63163.3359 15895.6924)">
		<stop  offset="0" style="stop-color:#00B8D9"/>
		<stop  offset="9.615381e-04" style="stop-color:#00B8D9"/>
		<stop  offset="0.4489" style="stop-color:#5D75B8"/>
		<stop  offset="1" style="stop-color:#5D75B8"/>
	</linearGradient>
	<polygon class="st3" points="53.6,26 60.8,14.2 70.6,20.3 63.4,32 	"/>
</g>
<g>
	<defs>
		<path id="SVGID_10_" d="M64.3,30.6c-0.7,0.2-1.1,1-0.9,1.7s1,1.1,1.7,0.9c0.7-0.2,1.1-1,0.9-1.7c-0.2-0.6-0.7-1-1.3-1
			C64.5,30.5,64.4,30.6,64.3,30.6"/>
	</defs>
	<clipPath id="SVGID_11_">
		<use xlink:href="#SVGID_10_"  style="overflow:visible;"/>
	</clipPath>
	
		<linearGradient id="SVGID_12_" gradientUnits="userSpaceOnUse" x1="-669.2948" y1="2114.7117" x2="-668.2948" y2="2114.7117" gradientTransform="matrix(15.4033 -24.9668 -24.9668 -15.4033 63169.1211 15899.2637)">
		<stop  offset="0" style="stop-color:#00B8D9"/>
		<stop  offset="9.615381e-04" style="stop-color:#00B8D9"/>
		<stop  offset="0.4489" style="stop-color:#5D75B8"/>
		<stop  offset="1" style="stop-color:#5D75B8"/>
	</linearGradient>
	<polygon class="st4" points="61.9,32.6 64,29.2 67.4,31.3 65.3,34.7 	"/>
</g>
<g>
	<defs>
		<path id="SVGID_13_" d="M61.2,5.3c-0.7,0.2-1.1,1-0.9,1.7l5,17.5c0.2,0.7,1,1.1,1.7,0.9c0.7-0.2,1.1-1,0.9-1.7l-5-17.5
			c-0.2-0.6-0.7-1-1.3-1C61.5,5.2,61.3,5.2,61.2,5.3"/>
	</defs>
	<clipPath id="SVGID_14_">
		<use xlink:href="#SVGID_13_"  style="overflow:visible;"/>
	</clipPath>
	
		<linearGradient id="SVGID_15_" gradientUnits="userSpaceOnUse" x1="-669.2948" y1="2114.7117" x2="-668.2948" y2="2114.7117" gradientTransform="matrix(15.4033 -24.9668 -24.9668 -15.4033 63161.3359 15894.4609)">
		<stop  offset="0" style="stop-color:#00B8D9"/>
		<stop  offset="9.615381e-04" style="stop-color:#00B8D9"/>
		<stop  offset="0.4489" style="stop-color:#5D75B8"/>
		<stop  offset="1" style="stop-color:#5D75B8"/>
	</linearGradient>
	<polygon class="st5" points="51,20 62.3,1.6 77.2,10.8 65.9,29.2 	"/>
</g>
<g>
	<defs>
		<path id="SVGID_16_" d="M67.4,26.8c-0.7,0.2-1.1,1-0.9,1.7c0.2,0.7,1,1.1,1.7,0.9c0.7-0.2,1.1-1,0.9-1.7c-0.2-0.6-0.7-1-1.3-1
			C67.6,26.8,67.5,26.8,67.4,26.8"/>
	</defs>
	<clipPath id="SVGID_17_">
		<use xlink:href="#SVGID_16_"  style="overflow:visible;"/>
	</clipPath>
	
		<linearGradient id="SVGID_18_" gradientUnits="userSpaceOnUse" x1="-669.2948" y1="2114.7117" x2="-668.2948" y2="2114.7117" gradientTransform="matrix(15.4033 -24.9668 -24.9668 -15.4033 63169.6875 15899.6143)">
		<stop  offset="0" style="stop-color:#00B8D9"/>
		<stop  offset="9.615381e-04" style="stop-color:#00B8D9"/>
		<stop  offset="0.4489" style="stop-color:#5D75B8"/>
		<stop  offset="1" style="stop-color:#5D75B8"/>
	</linearGradient>
	<polygon class="st6" points="65,28.8 67.1,25.4 70.5,27.5 68.4,31 	"/>
</g>
<g>
	<defs>
		<path id="SVGID_19_" d="M67.2,11.4c-0.7,0.2-1.1,1-0.9,1.7l2.9,10.3c0.2,0.7,1,1.1,1.7,0.9c0.7-0.2,1.1-1,0.9-1.7l-2.9-10.3
			c-0.2-0.6-0.7-1-1.3-1C67.5,11.4,67.4,11.4,67.2,11.4"/>
	</defs>
	<clipPath id="SVGID_20_">
		<use xlink:href="#SVGID_19_"  style="overflow:visible;"/>
	</clipPath>
	
		<linearGradient id="SVGID_21_" gradientUnits="userSpaceOnUse" x1="-669.2948" y1="2114.7117" x2="-668.2948" y2="2114.7117" gradientTransform="matrix(15.4033 -24.9668 -24.9668 -15.4033 63166.0859 15897.3906)">
		<stop  offset="0" style="stop-color:#00B8D9"/>
		<stop  offset="9.615381e-04" style="stop-color:#00B8D9"/>
		<stop  offset="0.4489" style="stop-color:#5D75B8"/>
		<stop  offset="1" style="stop-color:#5D75B8"/>
	</linearGradient>
	<polygon class="st7" points="60.2,20.9 67.8,8.7 77.9,15 70.4,27.2 	"/>
</g>
<g>
	<defs>
		<path id="SVGID_22_" d="M66.2,7.8c-0.7,0.2-1.1,1-0.9,1.7c0.2,0.7,1,1.1,1.7,0.9c0.7-0.2,1.1-1,0.9-1.7c-0.2-0.6-0.7-1-1.3-1
			C66.4,7.7,66.3,7.7,66.2,7.8"/>
	</defs>
	<clipPath id="SVGID_23_">
		<use xlink:href="#SVGID_22_"  style="overflow:visible;"/>
	</clipPath>
	
		<linearGradient id="SVGID_24_" gradientUnits="userSpaceOnUse" x1="-669.2948" y1="2114.7117" x2="-668.2948" y2="2114.7117" gradientTransform="matrix(15.4033 -24.9668 -24.9668 -15.4033 63160.3125 15893.8301)">
		<stop  offset="0" style="stop-color:#00B8D9"/>
		<stop  offset="9.615381e-04" style="stop-color:#00B8D9"/>
		<stop  offset="0.4489" style="stop-color:#5D75B8"/>
		<stop  offset="1" style="stop-color:#5D75B8"/>
	</linearGradient>
	<polygon class="st8" points="63.8,9.8 65.9,6.4 69.3,8.5 67.2,11.9 	"/>
</g>
<g>
	<defs>
		<path id="SVGID_25_" d="M51.9,8.8c-3.9,3.3-5.6,8.5-4.1,13.4c1.4,4.9,5.6,8.5,10.6,9.2c0.7,0.1,1.4-0.4,1.5-1.2
			c0.1-0.7-0.4-1.4-1.2-1.5c-4-0.5-7.3-3.4-8.4-7.3c-1.1-3.9,0.2-8,3.3-10.6c0.6-0.5,0.7-1.3,0.2-1.9c-0.3-0.3-0.7-0.5-1-0.5
			C52.5,8.5,52.2,8.6,51.9,8.8"/>
	</defs>
	<clipPath id="SVGID_26_">
		<use xlink:href="#SVGID_25_"  style="overflow:visible;"/>
	</clipPath>
	
		<linearGradient id="SVGID_27_" gradientUnits="userSpaceOnUse" x1="-669.2948" y1="2114.7742" x2="-668.2948" y2="2114.7742" gradientTransform="matrix(15.4033 -24.9668 -24.9668 -15.4033 63157.0352 15891.8086)">
		<stop  offset="0" style="stop-color:#00B8D9"/>
		<stop  offset="9.615381e-04" style="stop-color:#00B8D9"/>
		<stop  offset="0.4489" style="stop-color:#5D75B8"/>
		<stop  offset="1" style="stop-color:#5D75B8"/>
	</linearGradient>
	<polygon class="st9" points="36.1,25.2 50.1,2.4 70.3,14.8 56.2,37.6 	"/>
</g>
</svg>
